<svg width="130" height="24" viewBox="0 0 130 24" fill="none" xmlns="http://www.w3.org/2000/svg">
<g clip-path="url(#clip0_104_730)">
<path d="M112.415 23.6098C112.344 23.9293 112.093 23.9648 111.664 23.9648H97.7728C97.4506 23.9648 97.2716 23.8938 97.2358 23.6808C97.2358 23.6453 98.7395 17.2193 101.783 4.1897H91.1496C90.7916 4.1897 90.5768 4.08319 90.541 3.87017L91.2928 0.461885C91.3644 0.142359 91.6508 -0.0351562 92.1163 -0.0351562H129.027C129.349 -0.0351562 129.672 0.142359 129.636 0.355376L128.848 3.72816C128.777 4.01218 128.526 4.15419 128.061 4.15419H116.962L112.415 23.6098Z" fill="#3A9C3E"/>
<path d="M27.352 11.0414C25.9916 12.2485 24.1657 12.7101 21.8387 12.7101H15.2513L17.2203 4.22485H21.2659C23.3781 4.22485 27.2804 4.50888 28.5335 7.10059C29.3211 8.66272 28.4977 10.0473 27.352 11.0414ZM39.0948 12.7101C42.8181 9.79882 43.2119 4.61538 37.5912 1.73965C35.0493 0.426036 30.8606 0 25.7768 0H6.22939C5.83558 0 5.40597 0.213018 5.33436 0.532544L0 23.4675C0.0358011 23.6805 0.143204 24 0.429613 24H11.886C12.3156 24 12.6378 24 12.7452 23.5385L14.2488 17.1479H17.6857L26.6718 24H41.6009L31.505 15.7988C34.0469 15.1953 36.9467 14.3787 39.0948 12.7101Z" fill="#3A9C3E"/>
<path d="M72.6408 11.0414C71.2803 12.2485 69.4545 12.7101 67.1274 12.7101H60.54L62.5091 4.22485H66.5546C68.6669 4.22485 72.5692 4.50888 73.8222 7.10059C74.574 8.66272 73.7506 10.0473 72.6408 11.0414ZM84.3477 12.7101C88.0711 9.79882 88.4649 4.61538 82.8441 1.73965C80.2664 0.426036 76.0777 0 71.0297 0H51.4823C51.0885 0 50.6589 0.213018 50.5873 0.532544L45.2529 23.4675C45.2887 23.6805 45.3961 24 45.6825 24H57.1389C57.5685 24 57.8907 24 57.9981 23.5385L59.5018 17.1479H62.9387L71.9248 24H86.8538L76.7579 15.7988C79.2998 15.1953 82.1997 14.3787 84.3477 12.7101Z" fill="#3A9C3E"/>
</g>
<defs>
<clipPath id="clip0_104_730">
<rect width="129.6" height="24" fill="white"/>
</clipPath>
</defs>
</svg>
